<?xml version="1.0" standalone="no"?>
 <!DOCTYPE svg PUBLIC "-//W3C//DTD SVG 1.1//EN" 
 "http://www.w3.org/Graphics/SVG/1.1/DTD/svg11.dtd"> 
<svg
  xmlns:svg="http://www.w3.org/2000/svg"
  xmlns="http://www.w3.org/2000/svg"
  xmlns:xlink="http://www.w3.org/1999/xlink"
  version="1.1"
  width="52.8320mm" height="43.9420mm" viewBox="0.0000 0.0000 52.8320 43.9420">
<title>SVG Image created as remoteMarlinControlBoard-B_Cu.svg date 2024/08/29 13:55:32 </title>
  <desc>Image generated by PCBNEW </desc>
<g style="fill:#000000; fill-opacity:1.0000;stroke:#000000; stroke-opacity:1.0000;
stroke-linecap:round; stroke-linejoin:round;"
 transform="translate(0 0) scale(1 1)">
<path style="fill:none; 
stroke:#000000; stroke-width:0.1000; stroke-opacity:1; 
stroke-linecap:round; stroke-linejoin:round;fill:none"
d="M 16.0020,12.7000
35.0020,12.7000
35.0020,6.7000
45.0020,6.7000
45.0020,37.7000
6.0020,37.7000
6.0020,6.7000
16.0020,6.7000
Z" /> 
</g>
<g style="fill:#000000; fill-opacity:1.0000; stroke:none;">
<circle cx="11.3360" cy="34.1440" r="1.5000" /> 
</g>
<g style="fill:#000000; fill-opacity:1.0000; stroke:none;">
<circle cx="11.3360" cy="34.1440" r="1.5000" /> 
</g>
<g style="fill:#000000; fill-opacity:1.0000; stroke:none;">
<circle cx="40.8000" cy="16.3640" r="1.5000" /> 
</g>
<g style="fill:#000000; fill-opacity:1.0000; stroke:none;">
<circle cx="11.4300" cy="29.2100" r="0.5500" /> 
</g>
<g style="fill:#000000; fill-opacity:1.0000; stroke:none;">
<circle cx="11.4300" cy="26.6700" r="0.5500" /> 
</g>
<g style="fill:#000000; fill-opacity:1.0000; stroke:none;">
<circle cx="11.4300" cy="24.1300" r="0.5500" /> 
</g>
<g style="fill:#000000; fill-opacity:1.0000; stroke:none;">
<circle cx="28.1940" cy="34.2900" r="0.5500" /> 
</g>
<g style="fill:#000000; fill-opacity:1.0000; stroke:none;">
<circle cx="30.7340" cy="34.2900" r="0.5500" /> 
</g>
<g style="fill:#000000; fill-opacity:1.0000; stroke:none;">
<circle cx="33.2740" cy="34.2900" r="0.5500" /> 
</g>
<g style="fill:#000000; fill-opacity:1.0000; stroke:none;">
<circle cx="40.1320" cy="21.0820" r="0.5500" /> 
</g>
<g style="fill:#000000; fill-opacity:1.0000; stroke:none;">
<circle cx="40.1320" cy="23.6220" r="0.5500" /> 
</g>
<g style="fill:#000000; fill-opacity:1.0000; stroke:none;">
<circle cx="40.1320" cy="26.1620" r="0.5500" /> 
</g>
<g style="fill:#000000; fill-opacity:1.0000; stroke:none;">
<circle cx="18.0340" cy="34.2900" r="0.5500" /> 
</g>
<g style="fill:#000000; fill-opacity:1.0000; stroke:none;">
<circle cx="20.5740" cy="34.2900" r="0.5500" /> 
</g>
<g style="fill:#000000; fill-opacity:1.0000; stroke:none;">
<circle cx="23.1140" cy="34.2900" r="0.5500" /> 
</g>
<g style="fill:#000000; fill-opacity:1.0000; stroke:none;">
<circle cx="11.4300" cy="14.2240" r="0.5500" /> 
</g>
<g style="fill:#000000; fill-opacity:1.0000; stroke:none;">
<circle cx="11.4300" cy="16.7640" r="0.5500" /> 
</g>
<g style="fill:#000000; fill-opacity:1.0000; stroke:none;">
<circle cx="11.4300" cy="19.3040" r="0.5500" /> 
</g>
<g style="fill:#000000; fill-opacity:1.0000; stroke:none;">
<circle cx="37.0840" cy="9.6520" r="0.5500" /> 
</g>
<g style="fill:#000000; fill-opacity:1.0000; stroke:none;">
<circle cx="39.6240" cy="9.6520" r="0.5500" /> 
</g>
<g style="fill:#000000; fill-opacity:1.0000; stroke:none;">
<circle cx="42.1640" cy="9.6520" r="0.5500" /> 
</g>
<g style="fill:#000000; fill-opacity:1.0000; stroke:none;">
<circle cx="11.3360" cy="34.1440" r="1.5000" /> 
</g>
<g style="fill:#000000; fill-opacity:1.0000; stroke:none;">
<circle cx="11.3360" cy="34.1440" r="1.5000" /> 
</g>
<g style="fill:#000000; fill-opacity:1.0000; stroke:none;">
<circle cx="40.8000" cy="16.3640" r="1.5000" /> 
<path style="fill:#000000; fill-opacity:1.0000; stroke:none;fill-rule:evenodd;"
d="M 12.4800,30.2600
10.3800,30.2600
10.3800,28.1600
12.4800,28.1600
Z" /> 
</g>
<g style="fill:#000000; fill-opacity:1.0000; stroke:none;">
<circle cx="11.4300" cy="26.6700" r="1.0500" /> 
</g>
<g style="fill:#000000; fill-opacity:1.0000; stroke:none;">
<circle cx="11.4300" cy="24.1300" r="1.0500" /> 
<path style="fill:#000000; fill-opacity:1.0000; stroke:none;fill-rule:evenodd;"
d="M 27.1440,35.3400
27.1440,33.2400
29.2440,33.2400
29.2440,35.3400
Z" /> 
</g>
<g style="fill:#000000; fill-opacity:1.0000; stroke:none;">
<circle cx="30.7340" cy="34.2900" r="1.0500" /> 
</g>
<g style="fill:#000000; fill-opacity:1.0000; stroke:none;">
<circle cx="33.2740" cy="34.2900" r="1.0500" /> 
<path style="fill:#000000; fill-opacity:1.0000; stroke:none;fill-rule:evenodd;"
d="M 39.0820,20.0320
41.1820,20.0320
41.1820,22.1320
39.0820,22.1320
Z" /> 
</g>
<g style="fill:#000000; fill-opacity:1.0000; stroke:none;">
<circle cx="40.1320" cy="23.6220" r="1.0500" /> 
</g>
<g style="fill:#000000; fill-opacity:1.0000; stroke:none;">
<circle cx="40.1320" cy="26.1620" r="1.0500" /> 
<path style="fill:#000000; fill-opacity:1.0000; stroke:none;fill-rule:evenodd;"
d="M 16.9840,35.3400
16.9840,33.2400
19.0840,33.2400
19.0840,35.3400
Z" /> 
</g>
<g style="fill:#000000; fill-opacity:1.0000; stroke:none;">
<circle cx="20.5740" cy="34.2900" r="1.0500" /> 
</g>
<g style="fill:#000000; fill-opacity:1.0000; stroke:none;">
<circle cx="23.1140" cy="34.2900" r="1.0500" /> 
<path style="fill:#000000; fill-opacity:1.0000; stroke:none;fill-rule:evenodd;"
d="M 10.3800,13.1740
12.4800,13.1740
12.4800,15.2740
10.3800,15.2740
Z" /> 
</g>
<g style="fill:#000000; fill-opacity:1.0000; stroke:none;">
<circle cx="11.4300" cy="16.7640" r="1.0500" /> 
</g>
<g style="fill:#000000; fill-opacity:1.0000; stroke:none;">
<circle cx="11.4300" cy="19.3040" r="1.0500" /> 
</g>
<g style="fill:#000000; fill-opacity:1.0000; stroke:none;">
<circle cx="12.9540" cy="9.1440" r="1.5000" /> 
</g>
<g style="fill:#000000; fill-opacity:1.0000; stroke:none;">
<circle cx="39.5300" cy="34.3980" r="1.5000" /> 
</g>
<g style="fill:#000000; fill-opacity:1.0000; stroke:none;">
<circle cx="41.0540" cy="30.3340" r="1.5000" /> 
</g>
<g style="fill:#000000; fill-opacity:1.0000; stroke:none;">
<circle cx="8.6360" cy="9.1440" r="1.5000" /> 
<path style="fill:#000000; fill-opacity:1.0000; stroke:none;fill-rule:evenodd;"
d="M 34.5240,13.1860
34.5240,14.1860
32.0240,14.1860
32.0240,13.1860
Z" /> 
<path style="fill:#000000; fill-opacity:1.0000; stroke:none;fill-rule:evenodd;"
d="M 34.5240,15.1860
34.5240,16.1860
32.0240,16.1860
32.0240,15.1860
Z" /> 
<path style="fill:#000000; fill-opacity:1.0000; stroke:none;fill-rule:evenodd;"
d="M 34.5240,17.1860
34.5240,18.1860
32.0240,18.1860
32.0240,17.1860
Z" /> 
<path style="fill:#000000; fill-opacity:1.0000; stroke:none;fill-rule:evenodd;"
d="M 34.5240,19.1860
34.5240,20.1860
32.0240,20.1860
32.0240,19.1860
Z" /> 
<path style="fill:#000000; fill-opacity:1.0000; stroke:none;fill-rule:evenodd;"
d="M 34.5240,21.1860
34.5240,22.1860
32.0240,22.1860
32.0240,21.1860
Z" /> 
<path style="fill:#000000; fill-opacity:1.0000; stroke:none;fill-rule:evenodd;"
d="M 34.5240,23.1860
34.5240,24.1860
32.0240,24.1860
32.0240,23.1860
Z" /> 
<path style="fill:#000000; fill-opacity:1.0000; stroke:none;fill-rule:evenodd;"
d="M 34.5240,25.1860
34.5240,26.1860
32.0240,26.1860
32.0240,25.1860
Z" /> 
<path style="fill:#000000; fill-opacity:1.0000; stroke:none;fill-rule:evenodd;"
d="M 34.5240,27.1860
34.5240,28.1860
32.0240,28.1860
32.0240,27.1860
Z" /> 
<path style="fill:#000000; fill-opacity:1.0000; stroke:none;fill-rule:evenodd;"
d="M 31.1740,28.2860
31.1740,30.0860
30.1740,30.0860
30.1740,28.2860
Z" /> 
<path style="fill:#000000; fill-opacity:1.0000; stroke:none;fill-rule:evenodd;"
d="M 29.1740,28.2860
29.1740,30.0860
28.1740,30.0860
28.1740,28.2860
Z" /> 
<path style="fill:#000000; fill-opacity:1.0000; stroke:none;fill-rule:evenodd;"
d="M 27.1740,28.2860
27.1740,30.0860
26.1740,30.0860
26.1740,28.2860
Z" /> 
<path style="fill:#000000; fill-opacity:1.0000; stroke:none;fill-rule:evenodd;"
d="M 25.1740,28.2860
25.1740,30.0860
24.1740,30.0860
24.1740,28.2860
Z" /> 
<path style="fill:#000000; fill-opacity:1.0000; stroke:none;fill-rule:evenodd;"
d="M 23.1740,28.2860
23.1740,30.0860
22.1740,30.0860
22.1740,28.2860
Z" /> 
<path style="fill:#000000; fill-opacity:1.0000; stroke:none;fill-rule:evenodd;"
d="M 21.1740,28.2860
21.1740,30.0860
20.1740,30.0860
20.1740,28.2860
Z" /> 
<path style="fill:#000000; fill-opacity:1.0000; stroke:none;fill-rule:evenodd;"
d="M 19.3240,27.1860
19.3240,28.1860
16.8240,28.1860
16.8240,27.1860
Z" /> 
<path style="fill:#000000; fill-opacity:1.0000; stroke:none;fill-rule:evenodd;"
d="M 19.3240,25.1860
19.3240,26.1860
16.8240,26.1860
16.8240,25.1860
Z" /> 
<path style="fill:#000000; fill-opacity:1.0000; stroke:none;fill-rule:evenodd;"
d="M 19.3240,23.1860
19.3240,24.1860
16.8240,24.1860
16.8240,23.1860
Z" /> 
<path style="fill:#000000; fill-opacity:1.0000; stroke:none;fill-rule:evenodd;"
d="M 19.3240,21.1860
19.3240,22.1860
16.8240,22.1860
16.8240,21.1860
Z" /> 
<path style="fill:#000000; fill-opacity:1.0000; stroke:none;fill-rule:evenodd;"
d="M 19.3240,19.1860
19.3240,20.1860
16.8240,20.1860
16.8240,19.1860
Z" /> 
<path style="fill:#000000; fill-opacity:1.0000; stroke:none;fill-rule:evenodd;"
d="M 19.3240,17.1860
19.3240,18.1860
16.8240,18.1860
16.8240,17.1860
Z" /> 
<path style="fill:#000000; fill-opacity:1.0000; stroke:none;fill-rule:evenodd;"
d="M 19.3240,15.1860
19.3240,16.1860
16.8240,16.1860
16.8240,15.1860
Z" /> 
<path style="fill:#000000; fill-opacity:1.0000; stroke:none;fill-rule:evenodd;"
d="M 19.3240,13.1860
19.3240,14.1860
16.8240,14.1860
16.8240,13.1860
Z" /> 
<path style="fill:#000000; fill-opacity:1.0000; stroke:none;fill-rule:evenodd;"
d="M 36.0340,10.7020
36.0340,8.6020
38.1340,8.6020
38.1340,10.7020
Z" /> 
</g>
<g style="fill:#000000; fill-opacity:1.0000; stroke:none;">
<circle cx="39.6240" cy="9.6520" r="1.0500" /> 
</g>
<g style="fill:#000000; fill-opacity:1.0000; stroke:none;">
<circle cx="42.1640" cy="9.6520" r="1.0500" /> 
</g>
<g style="fill:none; 
stroke:#000000; stroke-width:0.5000; stroke-opacity:1; 
stroke-linecap:round; stroke-linejoin:round;">
<path d="M41.0540 30.3340
L37.1920 30.3340
" />
<path d="M37.1920 30.3340
L34.5440 27.6860
" />
<path d="M34.5440 27.6860
L33.2740 27.6860
" />
<path d="M18.0740 13.6860
L15.9273 13.6860
" />
<path d="M15.9273 13.6860
L15.2400 12.9987
" />
<path d="M15.2400 12.9987
L15.2400 11.4300
" />
<path d="M15.2400 11.4300
L12.9540 9.1440
" />
<path d="M18.0740 15.6860
L16.1320 15.6860
" />
<path d="M16.1320 15.6860
L9.5900 9.1440
" />
<path d="M9.5900 9.1440
L8.6360 9.1440
" />
<path d="M18.0740 17.6860
L14.8920 17.6860
" />
<path d="M14.8920 17.6860
L11.4300 14.2240
" />
<path d="M18.0740 21.6860
L15.0820 21.6860
" />
<path d="M15.0820 21.6860
L12.7000 19.3040
" />
<path d="M12.7000 19.3040
L11.4300 19.3040
" />
<path d="M18.0740 19.6860
L15.6220 19.6860
" />
<path d="M15.6220 19.6860
L12.7000 16.7640
" />
<path d="M12.7000 16.7640
L11.4300 16.7640
" />
<path d="M33.2740 27.6860
L31.4960 27.6860
" />
<path d="M31.4960 27.6860
L30.7340 26.9240
" />
<path d="M30.7340 26.9240
L30.7340 18.7960
" />
<path d="M30.7340 18.7960
L31.8440 17.6860
" />
<path d="M31.8440 17.6860
L33.2740 17.6860
" />
<path d="M33.2740 17.6860
L35.1460 17.6860
" />
<path d="M35.1460 17.6860
L37.0840 15.7480
" />
<path d="M37.0840 15.7480
L37.0840 9.6520
" />
<path d="M39.6560 25.6860
L40.1320 26.1620
" />
<path d="M33.2740 25.6860
L39.6560 25.6860
" />
<path d="M40.0680 23.6860
L40.1320 23.6220
" />
<path d="M33.2740 23.6860
L40.0680 23.6860
" />
<path d="M39.5280 21.6860
L40.1320 21.0820
" />
<path d="M33.2740 21.6860
L39.5280 21.6860
" />
<path d="M20.5740 33.2740
L22.6740 31.1740
" />
<path d="M20.5740 34.2900
L20.5740 33.2740
" />
<path d="M22.6740 31.1740
L22.6740 29.1860
" />
<path d="M18.0340 32.7660
L18.0340 34.2900
" />
<path d="M20.6740 29.1860
L20.6740 30.1260
" />
<path d="M20.6740 30.1260
L18.0340 32.7660
" />
<path d="M23.1140 34.2900
L24.6740 32.7300
" />
<path d="M24.6740 32.7300
L24.6740 29.1860
" />
<path d="M30.7340 32.8051
L28.6740 30.7451
" />
<path d="M28.6740 30.7451
L28.6740 29.1860
" />
<path d="M30.7340 34.2900
L30.7340 32.8051
" />
<path d="M26.6740 32.7700
L28.1940 34.2900
" />
<path d="M26.6740 29.1860
L26.6740 32.7700
" />
<path d="M30.6740 29.1860
L33.2740 31.7860
" />
<path d="M33.2740 31.7860
L33.2740 34.2900
" />
<path style="fill:#000000; fill-opacity:1.0000; stroke:none;fill-rule:evenodd;"
d="M 44.4445,7.2202
44.4903,7.2730
44.5015,7.3245
44.5015,37.0755
44.4818,37.1425
44.4290,37.1883
44.3775,37.1995
6.6265,37.1995
6.5595,37.1798
6.5137,37.1270
6.5025,37.0755
6.5025,34.1440
9.3304,34.1440
9.3304,34.1440
9.3352,34.2110
9.3355,34.2199
9.3355,34.2751
9.3444,34.3424
9.3451,34.3498
9.3508,34.4294
9.3508,34.4294
9.3624,34.4827
9.3642,34.4929
9.3697,34.5351
9.3906,34.6129
9.3920,34.6186
9.4116,34.7090
9.4263,34.7483
9.4299,34.7595
9.4376,34.7884
9.4733,34.8745
9.4749,34.8786
9.5116,34.9772
9.5116,34.9772
9.5256,35.0028
9.5314,35.0148
9.5380,35.0307
9.5380,35.0307
9.5909,35.1223
9.5923,35.1249
9.6488,35.2283
9.6587,35.2415
9.6668,35.2538
9.6691,35.2578
9.7413,35.3519
9.7420,35.3528
9.8128,35.4475
9.8203,35.4574
9.8203,35.4574
10.0226,35.6597
10.0226,35.6597
10.0226,35.6597
10.0226,35.6597
10.0226,35.6597
10.1270,35.7379
10.1282,35.7388
10.2222,35.8109
10.2262,35.8132
10.2385,35.8213
10.2449,35.8261
10.2517,35.8312
10.2687,35.8405
10.3551,35.8877
10.3577,35.8891
10.4493,35.9420
10.4493,35.9420
10.4652,35.9486
10.4772,35.9544
10.5028,35.9684
10.6014,36.0051
10.6055,36.0067
10.6916,36.0424
10.6916,36.0424
10.7102,36.0474
10.7205,36.0501
10.7317,36.0537
10.7710,36.0684
10.7710,36.0684
10.7710,36.0684
10.8465,36.0848
10.8613,36.0880
10.8614,36.0880
10.8671,36.0894
10.9449,36.1103
10.9871,36.1158
10.9972,36.1176
11.0506,36.1292
11.1302,36.1349
11.1375,36.1356
11.2049,36.1445
11.2601,36.1445
11.2690,36.1448
11.3360,36.1496
11.3360,36.1496
11.3360,36.1496
11.4030,36.1448
11.4119,36.1445
11.4671,36.1445
11.4671,36.1445
11.5344,36.1356
11.5418,36.1349
11.6214,36.1292
11.6748,36.1176
11.6849,36.1158
11.7271,36.1103
11.8049,36.0894
11.8106,36.0880
11.9010,36.0684
11.9403,36.0537
11.9515,36.0501
11.9804,36.0424
12.0071,36.0313
12.0665,36.0067
12.0706,36.0051
12.1430,35.9781
38.3034,35.9781
38.4460,36.0848
38.4460,36.0848
38.6970,36.2219
38.6970,36.2219
38.9651,36.3219
39.2446,36.3827
39.5300,36.4031
39.5300,36.4031
39.8154,36.3827
40.0949,36.3219
40.3630,36.2219
40.6140,36.0848
40.7566,35.9781
40.7566,35.9781
39.5300,34.7516
39.5300,34.7516
38.3034,35.9781
12.1430,35.9781
12.1692,35.9684
12.1948,35.9544
12.2068,35.9486
12.2227,35.9420
12.3144,35.8891
12.3169,35.8877
12.4203,35.8312
12.4335,35.8213
12.4459,35.8132
12.4498,35.8109
12.5438,35.7388
12.5449,35.7380
12.6494,35.6597
12.8517,35.4574
12.9300,35.3529
12.9308,35.3518
13.0029,35.2578
13.0052,35.2538
13.0133,35.2415
13.0232,35.2283
13.0797,35.1249
13.0811,35.1224
13.1340,35.0307
13.1406,35.0148
13.1464,35.0028
13.1604,34.9772
13.1971,34.8786
13.1987,34.8745
13.2344,34.7884
13.2344,34.7884
13.2344,34.7884
13.2421,34.7595
13.2457,34.7483
13.2604,34.7090
13.2800,34.6186
13.2814,34.6129
13.2814,34.6129
13.3023,34.5351
13.3078,34.4929
13.3096,34.4828
13.3212,34.4294
13.3269,34.3498
13.3276,34.3424
13.3276,34.3424
13.3365,34.2751
13.3365,34.2199
13.3368,34.2110
13.3416,34.1440
13.3416,34.1440
13.3368,34.0770
13.3365,34.0681
13.3365,34.0129
13.3365,34.0129
13.3276,33.9455
13.3269,33.9382
13.3212,33.8586
13.3096,33.8052
13.3078,33.7951
13.3023,33.7529
13.2814,33.6751
13.2800,33.6694
13.2604,33.5790
13.2604,33.5790
13.2457,33.5397
13.2421,33.5285
13.2344,33.4996
13.2344,33.4996
13.1987,33.4135
13.1971,33.4094
13.1604,33.3108
13.1464,33.2852
13.1406,33.2732
13.1340,33.2573
13.1340,33.2573
13.0811,33.1657
13.0797,33.1631
13.0502,33.1090
13.0232,33.0597
13.0133,33.0465
13.0052,33.0342
13.0037,33.0316
13.0029,33.0302
13.0029,33.0302
13.0029,33.0302
12.9308,32.9362
12.9299,32.9350
12.8517,32.8306
12.8517,32.8306
12.8517,32.8306
12.8517,32.8306
12.8517,32.8306
12.6494,32.6283
12.6494,32.6283
12.6344,32.6171
12.5448,32.5500
12.5439,32.5493
12.4498,32.4771
12.4458,32.4748
12.4335,32.4667
12.4203,32.4568
12.3169,32.4003
12.3143,32.3989
12.2227,32.3460
12.2227,32.3460
12.2068,32.3394
12.1948,32.3336
12.1692,32.3196
12.1692,32.3196
12.1692,32.3196
12.0706,32.2829
12.0665,32.2813
11.9804,32.2456
11.9515,32.2379
11.9403,32.2343
11.9010,32.2196
11.8106,32.2000
11.8049,32.1986
11.7271,32.1777
11.7271,32.1777
11.7271,32.1777
11.7054,32.1749
11.6849,32.1722
11.6747,32.1704
11.6214,32.1588
11.6214,32.1588
11.5418,32.1531
11.5344,32.1524
11.4671,32.1435
11.4671,32.1435
11.4119,32.1435
11.4030,32.1432
11.3360,32.1384
11.3360,32.1384
11.2690,32.1432
11.2601,32.1435
11.2049,32.1435
11.1376,32.1524
11.1302,32.1531
11.0506,32.1588
11.0506,32.1588
10.9973,32.1704
10.9871,32.1722
10.9449,32.1777
10.8671,32.1986
10.8614,32.2000
10.7710,32.2196
10.7709,32.2196
10.7317,32.2343
10.7205,32.2379
10.6916,32.2456
10.6916,32.2456
10.6055,32.2812
10.6014,32.2829
10.5028,32.3196
10.5028,32.3196
10.4772,32.3336
10.4652,32.3394
10.4493,32.3460
10.3577,32.3989
10.3551,32.4003
10.2517,32.4568
10.2385,32.4667
10.2262,32.4748
10.2222,32.4771
10.2222,32.4771
10.1282,32.5492
10.1270,32.5501
10.0226,32.6283
10.0226,32.6283
9.8203,32.8306
9.8203,32.8306
9.7421,32.9350
9.7412,32.9362
9.6691,33.0302
9.6691,33.0302
9.6668,33.0342
9.6587,33.0465
9.6488,33.0597
9.5923,33.1631
9.5909,33.1657
9.5380,33.2573
9.5314,33.2732
9.5256,33.2852
9.5116,33.3108
9.5116,33.3108
9.4749,33.4094
9.4733,33.4135
9.4376,33.4996
9.4376,33.4996
9.4299,33.5285
9.4263,33.5397
9.4116,33.5789
9.4116,33.5790
9.3920,33.6694
9.3906,33.6751
9.3697,33.7529
9.3642,33.7951
9.3624,33.8053
9.3508,33.8586
9.3508,33.8586
9.3451,33.9382
9.3444,33.9456
9.3355,34.0129
9.3355,34.0681
9.3352,34.0770
9.3304,34.1440
6.5025,34.1440
6.5025,24.1300
9.8752,24.1300
9.8943,24.3732
9.9513,24.6105
10.0447,24.8359
10.1685,25.0379
10.9062,24.3002
10.9175,24.3423
10.9899,24.4677
11.0923,24.5701
11.2177,24.6425
11.2598,24.6538
10.5213,25.3922
10.5213,25.4078
11.2598,26.1462
11.2177,26.1575
11.0923,26.2299
10.9899,26.3323
10.9175,26.4577
10.9062,26.4998
10.1685,25.7621
10.0447,25.9641
9.9513,26.1895
9.8943,26.4268
9.8752,26.6700
9.8943,26.9132
9.9513,27.1505
10.0447,27.3759
10.1581,27.5610
10.1764,27.6284
10.1552,27.6950
10.1267,27.7250
10.0228,27.8028
9.9366,27.9179
9.9366,27.9179
9.8864,28.0526
9.8864,28.0526
9.8800,28.1122
9.8800,28.9600
10.9393,28.9600
10.9175,28.9977
10.8800,29.1376
10.8800,29.2824
10.9175,29.4223
10.9393,29.4600
9.8800,29.4600
9.8800,30.3078
9.8864,30.3674
9.8864,30.3674
9.9366,30.5021
9.9366,30.5021
10.0228,30.6172
10.0228,30.6172
10.1379,30.7034
10.1379,30.7034
10.2726,30.7536
10.2726,30.7536
10.3322,30.7600
10.3322,30.7600
11.1800,30.7600
11.1800,29.7007
11.2177,29.7225
11.3576,29.7600
11.5024,29.7600
11.6423,29.7225
11.6800,29.7007
11.6800,30.7600
12.5278,30.7600
12.5278,30.7600
12.5874,30.7536
12.5874,30.7536
12.7221,30.7034
12.7221,30.7034
12.8372,30.6172
12.8372,30.6172
12.9233,30.5021
12.9234,30.5021
12.9736,30.3674
12.9736,30.3674
12.9800,30.3078
12.9800,30.3078
12.9800,29.4600
11.9207,29.4600
11.9425,29.4223
11.9800,29.2824
11.9800,29.1376
11.9425,28.9977
11.9207,28.9600
12.9800,28.9600
12.9800,28.2338
16.3240,28.2338
16.3304,28.2934
16.3304,28.2934
16.3806,28.4281
16.3806,28.4281
16.4668,28.5432
16.4668,28.5432
16.5819,28.6293
16.5819,28.6294
16.7166,28.6796
16.7166,28.6796
16.7762,28.6860
16.7762,28.6860
17.8240,28.6860
17.8240,27.9360
16.3240,27.9360
16.3240,28.2338
12.9800,28.2338
12.9800,28.1122
12.9800,28.1122
12.9736,28.0526
12.9736,28.0526
12.9234,27.9179
12.9233,27.9179
12.8372,27.8028
12.8372,27.8028
12.7333,27.7250
12.6914,27.6691
12.6864,27.5994
12.7019,27.5610
12.8153,27.3759
12.9087,27.1505
12.9657,26.9132
12.9848,26.6700
12.9657,26.4268
12.9087,26.1895
12.8153,25.9641
12.6915,25.7621
11.9538,26.4998
11.9425,26.4577
11.8701,26.3323
11.7677,26.2299
11.6423,26.1575
11.6002,26.1462
12.3387,25.4078
12.3387,25.3922
11.6002,24.6538
11.6423,24.6425
11.7677,24.5701
11.8701,24.4677
11.9425,24.3423
11.9538,24.3002
12.6915,25.0379
12.6915,25.0379
12.8153,24.8359
12.9087,24.6105
12.9657,24.3732
12.9848,24.1300
12.9657,23.8868
12.9087,23.6495
12.8153,23.4241
12.6915,23.2221
11.9538,23.9598
11.9425,23.9177
11.8701,23.7923
11.7677,23.6899
11.6423,23.6175
11.6002,23.6062
12.3379,22.8685
12.1359,22.7447
11.9105,22.6513
11.6732,22.5943
11.6732,22.5943
11.4300,22.5752
11.1868,22.5943
10.9495,22.6513
10.7241,22.7447
10.5221,22.8685
11.2598,23.6062
11.2177,23.6175
11.0923,23.6899
10.9899,23.7923
10.9175,23.9177
10.9062,23.9598
10.1685,23.2221
10.0447,23.4241
9.9513,23.6495
9.8943,23.8868
9.8752,24.1300
6.5025,24.1300
6.5025,9.8356
6.5222,9.7686
6.5750,9.7228
6.6441,9.7129
6.7077,9.7419
6.7427,9.7923
6.7811,9.8953
6.8116,9.9772
6.8116,9.9772
6.9488,10.2283
6.9488,10.2283
7.1203,10.4574
7.1203,10.4574
7.3226,10.6597
7.3226,10.6597
7.5517,10.8312
7.5517,10.8312
7.8028,10.9684
7.8028,10.9684
7.8028,10.9684
7.8028,10.9684
8.0710,11.0684
8.0710,11.0684
8.0710,11.0684
8.3506,11.1292
8.3506,11.1292
8.3506,11.1292
8.5826,11.1458
8.6360,11.1496
8.6360,11.1496
8.6360,11.1496
8.6646,11.1476
8.9214,11.1292
8.9623,11.1203
9.2010,11.0684
9.2010,11.0684
9.2010,11.0684
9.4692,10.9684
9.7203,10.8312
9.9177,10.6835
9.9832,10.6591
10.0514,10.6739
10.0797,10.6951
11.8465,12.4618
11.8799,12.5231
11.8750,12.5928
11.8331,12.6488
11.7676,12.6732
11.7588,12.6735
10.3321,12.6735
10.3321,12.6735
10.2725,12.6799
10.1377,12.7302
10.1377,12.7302
10.0225,12.8165
10.0225,12.8165
9.9362,12.9317
9.9362,12.9317
9.8859,13.0665
9.8795,13.1261
9.8795,13.1261
9.8795,15.3219
9.8795,15.3219
9.8859,15.3815
9.9362,15.5163
9.9362,15.5163
10.0225,15.6315
10.0225,15.6315
10.1260,15.7091
10.1679,15.7650
10.1729,15.8347
10.1574,15.8731
10.0442,16.0579
9.9508,16.2834
9.9508,16.2834
9.9508,16.2834
9.9315,16.3640
9.8939,16.5207
9.8747,16.7640
9.8939,17.0073
9.8939,17.0073
9.8939,17.0073
9.9253,17.1381
9.9508,17.2446
10.0442,17.4701
10.1717,17.6782
10.1717,17.6782
10.1717,17.6782
10.3302,17.8638
10.3982,17.9218
10.4192,17.9397
10.4574,17.9982
10.4579,18.0681
10.4205,18.1271
10.4192,18.1283
10.3302,18.2042
10.1717,18.3898
10.1717,18.3898
10.0442,18.5979
9.9508,18.8234
9.8939,19.0607
9.8747,19.3040
9.8939,19.5473
9.8939,19.5473
9.8939,19.5473
9.9037,19.5882
9.9508,19.7846
10.0442,20.0101
10.1717,20.2182
10.1717,20.2182
10.1717,20.2182
10.3302,20.4038
10.4739,20.5265
10.5158,20.5623
10.5158,20.5623
10.7239,20.6898
10.9494,20.7832
10.9494,20.7832
10.9494,20.7832
10.9494,20.7832
11.1867,20.8401
11.4300,20.8593
11.6733,20.8401
11.9106,20.7832
12.1361,20.6898
12.3442,20.5623
12.5298,20.4038
12.5387,20.3932
12.5972,20.3550
12.6671,20.3545
12.7207,20.3861
14.6036,22.2690
14.6331,22.2886
14.6773,22.3182
14.6773,22.3182
14.6773,22.3182
14.7265,22.3511
14.7265,22.3511
14.7265,22.3511
14.7571,22.3637
14.8631,22.4077
14.9792,22.4308
14.9985,22.4346
15.0081,22.4365
15.0081,22.4365
15.0081,22.4365
15.1559,22.4365
16.3242,22.4365
16.3913,22.4562
16.4235,22.4862
16.4665,22.5435
16.4665,22.5435
16.5241,22.5867
16.5660,22.6427
16.5710,22.7124
16.5375,22.7737
16.5241,22.7853
16.4665,22.8285
16.3802,22.9437
16.3802,22.9437
16.3299,23.0785
16.3235,23.1381
16.3235,23.1381
16.3235,23.1381
16.3235,24.2339
16.3235,24.2339
16.3299,24.2935
16.3802,24.4283
16.3802,24.4283
16.4665,24.5435
16.4665,24.5435
16.4665,24.5435
16.4956,24.5654
16.5241,24.5867
16.5660,24.6427
16.5710,24.7124
16.5375,24.7737
16.5241,24.7853
16.4665,24.8285
16.3802,24.9437
16.3802,24.9437
16.3299,25.0785
16.3235,25.1381
16.3235,25.1381
16.3235,25.1381
16.3235,26.2339
16.3235,26.2339
16.3299,26.2935
16.3802,26.4283
16.3802,26.4283
16.4665,26.5435
16.4665,26.5435
16.4665,26.5435
16.5017,26.5700
16.5246,26.5870
16.5664,26.6430
16.5714,26.7127
16.5379,26.7740
16.5246,26.7856
16.4668,26.8288
16.3806,26.9439
16.3806,26.9439
16.3304,27.0786
16.3304,27.0786
16.3240,27.1382
16.3240,27.4360
19.8240,27.4360
19.8240,27.1382
19.8240,27.1382
19.8176,27.0786
19.8176,27.0786
19.7674,26.9439
19.7674,26.9439
19.6812,26.8288
19.6812,26.8288
19.6234,26.7856
19.5816,26.7296
19.5766,26.6600
19.6101,26.5986
19.6234,26.5870
19.6815,26.5435
19.7678,26.4283
19.8181,26.2935
19.8245,26.2339
19.8245,25.1381
19.8181,25.0785
19.8120,25.0622
19.7678,24.9437
19.7678,24.9437
19.7013,24.8548
19.6815,24.8285
19.6239,24.7853
19.5820,24.7293
19.5770,24.6596
19.6105,24.5983
19.6239,24.5867
19.6815,24.5435
19.7678,24.4283
19.8181,24.2935
19.8245,24.2339
19.8245,23.1381
19.8181,23.0785
19.7678,22.9437
19.7678,22.9437
19.7678,22.9437
19.6815,22.8285
19.6815,22.8285
19.6815,22.8285
19.6239,22.7853
19.5820,22.7293
19.5770,22.6596
19.6105,22.5983
19.6239,22.5867
19.6815,22.5435
19.7678,22.4283
19.8181,22.2935
19.8245,22.2339
19.8245,21.1381
19.8181,21.0785
19.7678,20.9437
19.7678,20.9437
19.7678,20.9437
19.7046,20.8593
19.6815,20.8285
19.6239,20.7853
19.5820,20.7293
19.5770,20.6596
19.6105,20.5983
19.6239,20.5867
19.6815,20.5435
19.7678,20.4283
19.8181,20.2935
19.8245,20.2339
19.8245,19.1381
19.8181,19.0785
19.8114,19.0607
19.7678,18.9437
19.7678,18.9437
19.6815,18.8285
19.6815,18.8285
19.6815,18.8285
19.6239,18.7853
19.5820,18.7293
19.5770,18.6596
19.6105,18.5983
19.6239,18.5867
19.6815,18.5435
19.7678,18.4283
19.8181,18.2935
19.8245,18.2339
19.8245,17.1381
19.8181,17.0785
19.7966,17.0209
19.7678,16.9437
19.7678,16.9437
19.6892,16.8386
19.6815,16.8285
19.6239,16.7853
19.5820,16.7293
19.5770,16.6596
19.6105,16.5983
19.6239,16.5867
19.6815,16.5435
19.7678,16.4283
19.8181,16.2935
19.8245,16.2339
19.8245,15.1381
19.8181,15.0785
19.8077,15.0506
19.7678,14.9437
19.7678,14.9437
19.6964,14.8483
19.6815,14.8285
19.6239,14.7853
19.5820,14.7293
19.5770,14.6596
19.6105,14.5983
19.6239,14.5867
19.6815,14.5435
19.7678,14.4283
19.8181,14.2935
19.8245,14.2339
19.8245,13.3245
19.8442,13.2575
19.8970,13.2117
19.9485,13.2005
31.3995,13.2005
31.4665,13.2202
31.5123,13.2730
31.5235,13.3245
31.5235,14.2339
31.5235,14.2339
31.5299,14.2935
31.5802,14.4283
31.5802,14.4283
31.6665,14.5435
31.6665,14.5435
31.6665,14.5435
31.6876,14.5594
31.7241,14.5867
31.7660,14.6427
31.7710,14.7124
31.7375,14.7737
31.7241,14.7853
31.6665,14.8285
31.5802,14.9437
31.5802,14.9437
31.5299,15.0785
31.5235,15.1381
31.5235,15.1381
31.5235,15.1381
31.5235,16.2339
31.5235,16.2339
31.5299,16.2935
31.5802,16.4283
31.5802,16.4283
31.6665,16.5435
31.6665,16.5435
31.6665,16.5435
31.6956,16.5654
31.7241,16.5867
31.7660,16.6427
31.7710,16.7124
31.7375,16.7737
31.7241,16.7853
31.7241,16.7853
31.6665,16.8285
31.5802,16.9437
31.5802,16.9437
31.5760,16.9515
31.5737,16.9502
31.5399,16.9955
31.5130,17.0108
31.4885,17.0209
31.4885,17.0209
31.4393,17.0538
31.3656,17.1030
31.3656,17.1030
30.1510,18.3176
30.1163,18.3696
30.1163,18.3696
30.0689,18.4405
30.0123,18.5771
30.0123,18.5771
29.9835,18.7221
29.9835,18.7221
29.9835,26.9979
29.9835,26.9979
29.9835,26.9979
30.0123,27.1429
30.0123,27.1429
30.0689,27.2795
30.1018,27.3287
30.1018,27.3287
30.1510,27.4024
30.1511,27.4024
30.3225,27.5738
30.3559,27.6351
30.3510,27.7048
30.3091,27.7608
30.2436,27.7852
30.2348,27.7855
30.1261,27.7855
30.1261,27.7855
30.0665,27.7919
29.9317,27.8422
29.9317,27.8422
29.8165,27.9285
29.7733,27.9861
29.7173,28.0280
29.6476,28.0330
29.5863,27.9995
29.5747,27.9861
29.5370,27.9357
29.5315,27.9285
29.5315,27.9285
29.5315,27.9285
29.4163,27.8422
29.4163,27.8422
29.2815,27.7919
29.2815,27.7919
29.2219,27.7855
29.2219,27.7855
29.2219,27.7855
29.2219,27.7855
28.1261,27.7855
28.1261,27.7855
28.0665,27.7919
27.9317,27.8422
27.9317,27.8422
27.8165,27.9285
27.7733,27.9861
27.7173,28.0280
27.6476,28.0330
27.5863,27.9995
27.5747,27.9861
27.5370,27.9357
27.5315,27.9285
27.5315,27.9285
27.5315,27.9285
27.4163,27.8422
27.4163,27.8422
27.2815,27.7919
27.2815,27.7919
27.2219,27.7855
27.2219,27.7855
27.2219,27.7855
27.2219,27.7855
26.1261,27.7855
26.1261,27.7855
26.0665,27.7919
25.9317,27.8422
25.9317,27.8422
25.8165,27.9285
25.7733,27.9861
25.7173,28.0280
25.6476,28.0330
25.5863,27.9995
25.5747,27.9861
25.5370,27.9357
25.5315,27.9285
25.5315,27.9285
25.5315,27.9285
25.4163,27.8422
25.4163,27.8422
25.2815,27.7919
25.2815,27.7919
25.2219,27.7855
25.2219,27.7855
25.2219,27.7855
25.2219,27.7855
24.1261,27.7855
24.1261,27.7855
24.0665,27.7919
23.9317,27.8422
23.9317,27.8422
23.8165,27.9285
23.7733,27.9861
23.7173,28.0280
23.6476,28.0330
23.5863,27.9995
23.5747,27.9861
23.5370,27.9357
23.5315,27.9285
23.5315,27.9285
23.5315,27.9285
23.4163,27.8422
23.4163,27.8422
23.2815,27.7919
23.2815,27.7919
23.2219,27.7855
23.2219,27.7855
23.2219,27.7855
23.2219,27.7855
22.1261,27.7855
22.1261,27.7855
22.0665,27.7919
21.9317,27.8422
21.9317,27.8422
21.8165,27.9285
21.7733,27.9861
21.7173,28.0280
21.6476,28.0330
21.5863,27.9995
21.5747,27.9861
21.5370,27.9357
21.5315,27.9285
21.5315,27.9285
21.5315,27.9285
21.4163,27.8422
21.4163,27.8422
21.2815,27.7919
21.2815,27.7919
21.2219,27.7855
21.2219,27.7855
21.2219,27.7855
21.2219,27.7855
20.1261,27.7855
20.1261,27.7855
20.0665,27.7919
19.9317,27.8422
19.9317,27.8422
19.8810,27.8801
19.8394,27.9113
19.7739,27.9357
19.7651,27.9360
18.3240,27.9360
18.3240,28.6860
19.3718,28.6860
19.3718,28.6860
19.4314,28.6796
19.4314,28.6796
19.5062,28.6517
19.5759,28.6467
19.6372,28.6802
19.6707,28.7415
19.6735,28.7679
19.6735,30.0138
19.6538,30.0808
19.6372,30.1014
17.4510,32.2876
17.4510,32.2876
17.4299,32.3192
17.4249,32.3267
17.3975,32.3678
17.3689,32.4105
17.3123,32.5471
17.3123,32.5471
17.2939,32.6397
17.2615,32.7016
17.2008,32.7362
17.1723,32.7395
16.9361,32.7395
16.9361,32.7395
16.8765,32.7459
16.7417,32.7962
16.7417,32.7962
16.6265,32.8825
16.6265,32.8825
16.5402,32.9977
16.5402,32.9977
16.4899,33.1325
16.4835,33.1921
16.4835,33.1921
16.4835,35.3879
16.4835,35.3879
16.4899,35.4475
16.5402,35.5823
16.5402,35.5823
16.6265,35.6975
16.6265,35.6975
16.7417,35.7838
16.7417,35.7838
16.8765,35.8341
16.8765,35.8341
16.8834,35.8348
16.9361,35.8405
19.1319,35.8405
19.1915,35.8341
19.3263,35.7838
19.4415,35.6975
19.5191,35.5940
19.5750,35.5521
19.6447,35.5471
19.6831,35.5626
19.8679,35.6758
20.0934,35.7692
20.0934,35.7692
20.0934,35.7692
20.0934,35.7692
20.3307,35.8261
20.5740,35.8453
20.8173,35.8261
21.0546,35.7692
21.2801,35.6758
21.4882,35.5483
21.6738,35.3898
21.7497,35.3008
21.8082,35.2626
21.8781,35.2621
21.9371,35.2995
21.9383,35.3008
22.0126,35.3879
22.0142,35.3898
22.1093,35.4710
22.1998,35.5483
22.1998,35.5483
22.4079,35.6758
22.6334,35.7692
22.6334,35.7692
22.6334,35.7692
22.6334,35.7692
22.8707,35.8261
23.1140,35.8453
23.3573,35.8261
23.5946,35.7692
23.8201,35.6758
24.0282,35.5483
24.2138,35.3898
24.3723,35.2042
24.4998,34.9961
24.5932,34.7706
24.6501,34.5333
24.6693,34.2900
24.6501,34.0467
24.6215,33.9276
24.6250,33.8578
24.6544,33.8109
25.2570,33.2084
25.3391,33.0855
25.3498,33.0597
25.3620,33.0302
25.3957,32.9489
25.4129,32.8620
25.4245,32.8039
25.4245,30.5857
25.4442,30.5187
25.4742,30.4865
25.5315,30.4435
25.5747,30.3859
25.6307,30.3440
25.7004,30.3390
25.7617,30.3725
25.7733,30.3859
25.8164,30.4435
25.8165,30.4435
25.8400,30.4612
25.8723,30.4854
25.8738,30.4865
25.9157,30.5424
25.9235,30.5857
25.9235,32.8439
25.9523,32.9889
25.9523,32.9889
26.0089,33.1255
26.0089,33.1255
26.0089,33.1255
26.0396,33.1714
26.0418,33.1747
26.0418,33.1747
26.0910,33.2484
26.0911,33.2484
26.6072,33.7645
26.6407,33.8259
26.6435,33.8522
26.6435,35.3879
26.6435,35.3879
26.6499,35.4475
26.7002,35.5823
26.7002,35.5823
26.7865,35.6975
26.7865,35.6975
26.9017,35.7838
26.9017,35.7838
27.0365,35.8341
27.0365,35.8341
27.0434,35.8348
27.0961,35.8405
29.2919,35.8405
29.3515,35.8341
29.4863,35.7838
29.6015,35.6975
29.6791,35.5940
29.7350,35.5521
29.8047,35.5471
29.8431,35.5626
30.0279,35.6758
30.2534,35.7692
30.2534,35.7692
30.2534,35.7692
30.2534,35.7692
30.4907,35.8261
30.7340,35.8453
30.9773,35.8261
31.2146,35.7692
31.4401,35.6758
31.6482,35.5483
31.8338,35.3898
31.9097,35.3008
31.9682,35.2626
32.0381,35.2621
32.0971,35.2995
32.0983,35.3008
32.1726,35.3879
32.1742,35.3898
32.2693,35.4710
32.3598,35.5483
32.3598,35.5483
32.5679,35.6758
32.7934,35.7692
32.7934,35.7692
32.7934,35.7692
32.7934,35.7692
33.0307,35.8261
33.2740,35.8453
33.5173,35.8261
33.7546,35.7692
33.9801,35.6758
34.1882,35.5483
34.3738,35.3898
34.5323,35.2042
34.6598,34.9961
34.7532,34.7706
34.8101,34.5333
34.8208,34.3980
37.5249,34.3980
37.5249,34.3980
37.5453,34.6834
37.6061,34.9629
37.7061,35.2310
37.8432,35.4820
37.8432,35.4820
37.9499,35.6246
37.9499,35.6246
39.1764,34.3980
39.1764,34.3980
39.8836,34.3980
39.8836,34.3980
41.1101,35.6246
41.1101,35.6246
41.2168,35.4820
41.3539,35.2310
41.4539,34.9629
41.5147,34.6834
41.5351,34.3980
41.5351,34.3980
41.5147,34.1126
41.4539,33.8331
41.3539,33.5650
41.2168,33.3140
41.2168,33.3140
41.1101,33.1714
39.8836,34.3980
39.1764,34.3980
37.9499,33.1714
37.9499,33.1714
37.8432,33.3140
37.8432,33.3140
37.7061,33.5650
37.6061,33.8331
37.5453,34.1126
37.5249,34.3980
34.8208,34.3980
34.8293,34.2900
34.8101,34.0467
34.7532,33.8094
34.7346,33.7645
34.6598,33.5839
34.5323,33.3758
34.5323,33.3758
34.4828,33.3179
34.3738,33.1902
34.2511,33.0854
34.1882,33.0317
34.1882,33.0317
34.0837,32.9677
34.0368,32.9159
34.0245,32.8620
34.0245,32.8179
38.3034,32.8179
39.5300,34.0444
39.5300,34.0444
40.7566,32.8179
40.7566,32.8179
40.6140,32.7112
40.6140,32.7112
40.3630,32.5741
40.3630,32.5741
40.0949,32.4741
39.8154,32.4133
39.5300,32.3929
39.5300,32.3929
39.2446,32.4133
38.9651,32.4741
38.6970,32.5741
38.4460,32.7112
38.4460,32.7112
38.3034,32.8179
38.3034,32.8179
34.0245,32.8179
34.0245,31.7121
33.9957,31.5671
33.9957,31.5671
33.9957,31.5671
33.9957,31.5671
33.9391,31.4305
33.9391,31.4305
33.8570,31.3076
33.8570,31.3076
33.7524,31.2030
31.7108,29.1614
31.6773,29.1001
31.6745,29.0738
31.6745,28.7684
31.6942,28.7014
31.7470,28.6556
31.8161,28.6457
31.8418,28.6522
31.9165,28.6801
31.9761,28.6865
34.4318,28.6865
34.4988,28.7062
34.5194,28.7228
35.5656,29.7690
36.6090,30.8124
36.7136,30.9170
36.7136,30.9170
36.7136,30.9170
36.8365,30.9991
36.8365,30.9991
36.8931,31.0225
36.8931,31.0225
36.9731,31.0557
37.0892,31.0788
37.1085,31.0826
37.1181,31.0845
37.1181,31.0845
37.1181,31.0845
37.2659,31.0845
39.1127,31.0845
39.1797,31.1042
39.2255,31.1570
39.2289,31.1652
39.2296,31.1672
39.2296,31.1672
39.3668,31.4183
39.3668,31.4183
39.5383,31.6474
39.5383,31.6474
39.7406,31.8497
39.7406,31.8497
39.9697,32.0212
39.9697,32.0212
40.2208,32.1584
40.2208,32.1584
40.2208,32.1584
40.2208,32.1584
40.4890,32.2584
40.4890,32.2584
40.4890,32.2584
40.7686,32.3192
40.7686,32.3192
40.7686,32.3192
41.0222,32.3373
41.0540,32.3396
41.0540,32.3396
41.0540,32.3396
41.0826,32.3376
41.3394,32.3192
41.4847,32.2876
41.6190,32.2584
41.6190,32.2584
41.6190,32.2584
41.8872,32.1584
42.1383,32.0212
42.3674,31.8497
42.5697,31.6474
42.7412,31.4183
42.8784,31.1672
42.9784,30.8990
43.0392,30.6194
43.0596,30.3340
43.0392,30.0486
42.9784,29.7690
42.8784,29.5008
42.7412,29.2497
42.7412,29.2497
42.5697,29.0206
42.5697,29.0206
42.3674,28.8183
42.3674,28.8183
42.1383,28.6468
42.1383,28.6468
41.8872,28.5096
41.8872,28.5096
41.6685,28.4281
41.6190,28.4096
41.6190,28.4096
41.6190,28.4096
41.3394,28.3488
41.0540,28.3284
41.0540,28.3284
40.7686,28.3488
40.4890,28.4096
40.2208,28.5096
39.9697,28.6468
39.9697,28.6468
39.7406,28.8183
39.7406,28.8183
39.5383,29.0206
39.5383,29.0206
39.3668,29.2497
39.3668,29.2497
39.2296,29.5008
39.2296,29.5008
39.2289,29.5028
39.2285,29.5034
39.2278,29.5049
39.2275,29.5047
39.1870,29.5588
39.1215,29.5832
39.1127,29.5835
37.5542,29.5835
37.4872,29.5638
37.4665,29.5472
35.0492,27.1298
35.0207,27.0855
34.9678,26.9437
34.9678,26.9437
34.8818,26.8288
34.8815,26.8285
34.8239,26.7853
34.7820,26.7293
34.7770,26.6596
34.8105,26.5983
34.8239,26.5867
34.8815,26.5435
34.9082,26.5079
34.9245,26.4862
34.9804,26.4443
35.0238,26.4365
38.5056,26.4365
38.5726,26.4562
38.6184,26.5090
38.6262,26.5315
38.6498,26.6298
38.6528,26.6426
38.7462,26.8681
38.8737,27.0762
38.8737,27.0762
38.8967,27.1030
39.0322,27.2618
39.1658,27.3759
39.2178,27.4203
39.2178,27.4203
39.4259,27.5478
39.6514,27.6412
39.6514,27.6412
39.6514,27.6412
39.6514,27.6412
39.8887,27.6981
40.1320,27.7173
40.3753,27.6981
40.6126,27.6412
40.8381,27.5478
41.0462,27.4203
41.2318,27.2618
41.3903,27.0762
41.5178,26.8681
41.6112,26.6426
41.6681,26.4053
41.6873,26.1620
41.6681,25.9187
41.6112,25.6814
41.5178,25.4559
41.5178,25.4559
41.3903,25.2478
41.3903,25.2478
41.2966,25.1381
41.2318,25.0622
41.2318,25.0622
41.2318,25.0622
41.1428,24.9863
41.1046,24.9278
41.1041,24.8579
41.1415,24.7989
41.1428,24.7977
41.2078,24.7422
41.2318,24.7218
41.3903,24.5362
41.5178,24.3281
41.6112,24.1026
41.6681,23.8653
41.6873,23.6220
41.6681,23.3787
41.6112,23.1414
41.6098,23.1381
41.5178,22.9159
41.4046,22.7311
41.3863,22.6637
41.4074,22.5971
41.4360,22.5671
41.5395,22.4895
41.6258,22.3743
41.6761,22.2395
41.6825,22.1799
41.6825,19.9841
41.6761,19.9245
41.6258,19.7897
41.6258,19.7897
41.6258,19.7897
41.5395,19.6745
41.5395,19.6745
41.4243,19.5882
41.4243,19.5882
41.2895,19.5379
41.2895,19.5379
41.2299,19.5315
41.2299,19.5315
41.2299,19.5315
41.2299,19.5315
39.0341,19.5315
39.0341,19.5315
38.9745,19.5379
38.8397,19.5882
38.8397,19.5882
38.7245,19.6745
38.7245,19.6745
38.6382,19.7897
38.6382,19.7897
38.5879,19.9245
38.5815,19.9841
38.5815,19.9841
38.5815,19.9841
38.5815,20.8115
38.5618,20.8785
38.5090,20.9243
38.4575,20.9355
35.0238,20.9355
34.9567,20.9158
34.9245,20.8858
34.8815,20.8285
34.8815,20.8285
34.8815,20.8285
34.8239,20.7853
34.7820,20.7293
34.7770,20.6596
34.8105,20.5983
34.8239,20.5867
34.8815,20.5435
34.9678,20.4283
35.0181,20.2935
35.0245,20.2339
35.0245,19.1381
35.0181,19.0785
35.0114,19.0607
34.9678,18.9437
34.9678,18.9437
34.8815,18.8285
34.8815,18.8285
34.8815,18.8285
34.8239,18.7853
34.7820,18.7293
34.7770,18.6596
34.8105,18.5983
34.8239,18.5867
34.8815,18.5435
34.9082,18.5079
34.9245,18.4862
34.9804,18.4443
35.0238,18.4365
35.2199,18.4365
35.3175,18.4171
35.3649,18.4077
35.5015,18.3511
35.5015,18.3511
35.5015,18.3511
35.5326,18.3303
35.5516,18.3176
35.6244,18.2690
37.5294,16.3640
38.7944,16.3640
38.7944,16.3640
38.7992,16.4310
38.7995,16.4399
38.7995,16.4951
38.8084,16.5624
38.8091,16.5698
38.8148,16.6494
38.8148,16.6494
38.8264,16.7027
38.8282,16.7129
38.8337,16.7551
38.8546,16.8329
38.8560,16.8386
38.8756,16.9290
38.8903,16.9683
38.8939,16.9795
38.9016,17.0084
38.9373,17.0945
38.9389,17.0986
38.9756,17.1972
38.9756,17.1972
38.9896,17.2228
38.9954,17.2348
39.0020,17.2507
39.0020,17.2507
39.0549,17.3423
39.0563,17.3449
39.1128,17.4483
39.1227,17.4615
39.1308,17.4738
39.1331,17.4778
39.2053,17.5719
39.2060,17.5728
39.2843,17.6774
39.2843,17.6774
39.2843,17.6774
39.4866,17.8797
39.4866,17.8797
39.4866,17.8797
39.4866,17.8797
39.4866,17.8797
39.5910,17.9579
39.5922,17.9588
39.6862,18.0309
39.6902,18.0332
39.7025,18.0413
39.7084,18.0457
39.7157,18.0512
39.7873,18.0903
39.8191,18.1077
39.8217,18.1091
39.9133,18.1620
39.9133,18.1620
39.9292,18.1686
39.9412,18.1744
39.9668,18.1884
40.0654,18.2251
40.0695,18.2267
40.1556,18.2624
40.1556,18.2624
40.1742,18.2674
40.1845,18.2701
40.1957,18.2737
40.2350,18.2884
40.2350,18.2884
40.2350,18.2884
40.3136,18.3055
40.3253,18.3080
40.3254,18.3080
40.3311,18.3094
40.4089,18.3303
40.4511,18.3358
40.4612,18.3376
40.5146,18.3492
40.5942,18.3549
40.6015,18.3556
40.6689,18.3645
40.7241,18.3645
40.7330,18.3648
40.8000,18.3696
40.8000,18.3696
40.8000,18.3696
40.8670,18.3648
40.8759,18.3645
40.9311,18.3645
40.9311,18.3645
40.9984,18.3556
41.0058,18.3549
41.0854,18.3492
41.1388,18.3376
41.1489,18.3358
41.1911,18.3303
41.2689,18.3094
41.2746,18.3080
41.3650,18.2884
41.4043,18.2737
41.4155,18.2701
41.4444,18.2624
41.4711,18.2513
41.5305,18.2267
41.5346,18.2251
41.6332,18.1884
41.6588,18.1744
41.6708,18.1686
41.6867,18.1620
41.7784,18.1091
41.7809,18.1077
41.8843,18.0512
41.8975,18.0413
41.9098,18.0332
41.9138,18.0309
42.0078,17.9588
42.0089,17.9580
42.1134,17.8797
42.3157,17.6774
42.3940,17.5729
42.3948,17.5718
42.4669,17.4778
42.4692,17.4738
42.4773,17.4615
42.4872,17.4483
42.5437,17.3449
42.5451,17.3424
42.5980,17.2507
42.6046,17.2348
42.6104,17.2228
42.6244,17.1972
42.6611,17.0986
42.6627,17.0945
42.6984,17.0084
42.6984,17.0084
42.6984,17.0084
42.7061,16.9795
42.7097,16.9683
42.7244,16.9290
42.7440,16.8386
42.7454,16.8329
42.7466,16.8285
42.7663,16.7551
42.7718,16.7129
42.7736,16.7028
42.7852,16.6494
42.7909,16.5698
42.7916,16.5624
42.7916,16.5624
42.8005,16.4951
42.8005,16.4399
42.8008,16.4310
42.8056,16.3640
42.8056,16.3640
42.8008,16.2970
42.8005,16.2881
42.8005,16.2329
42.7996,16.2264
42.7916,16.1655
42.7909,16.1582
42.7852,16.0786
42.7736,16.0252
42.7718,16.0151
42.7663,15.9729
42.7454,15.8951
42.7440,15.8894
42.7244,15.7990
42.7244,15.7990
42.7097,15.7597
42.7061,15.7485
42.6984,15.7196
42.6984,15.7196
42.6627,15.6335
42.6611,15.6294
42.6244,15.5308
42.6104,15.5052
42.6046,15.4932
42.5980,15.4773
42.5980,15.4773
42.5451,15.3857
42.5437,15.3831
42.4872,15.2797
42.4872,15.2797
42.4773,15.2665
42.4692,15.2542
42.4677,15.2516
42.4669,15.2502
42.4669,15.2502
42.4669,15.2502
42.3948,15.1562
42.3939,15.1550
42.3157,15.0506
42.3157,15.0506
42.3157,15.0506
42.3157,15.0506
42.3157,15.0506
42.1134,14.8483
42.1134,14.8483
42.0869,14.8285
42.0088,14.7700
42.0079,14.7693
41.9138,14.6971
41.9098,14.6948
41.8975,14.6867
41.8843,14.6768
41.7809,14.6203
41.7783,14.6189
41.6867,14.5660
41.6867,14.5660
41.6708,14.5594
41.6588,14.5536
41.6332,14.5396
41.6332,14.5396
41.6332,14.5396
41.5346,14.5029
41.5305,14.5013
41.4444,14.4656
41.4155,14.4579
41.4043,14.4543
41.3650,14.4396
41.2746,14.4200
41.2689,14.4186
41.1911,14.3977
41.1911,14.3977
41.1911,14.3977
41.1694,14.3949
41.1489,14.3922
41.1387,14.3904
41.0854,14.3788
41.0854,14.3788
41.0058,14.3731
40.9984,14.3724
40.9311,14.3635
40.9311,14.3635
40.8759,14.3635
40.8670,14.3632
40.8000,14.3584
40.8000,14.3584
40.7330,14.3632
40.7241,14.3635
40.6689,14.3635
40.6016,14.3724
40.5942,14.3731
40.5146,14.3788
40.5146,14.3788
40.4613,14.3904
40.4511,14.3922
40.4089,14.3977
40.3311,14.4186
40.3254,14.4200
40.2350,14.4396
40.2349,14.4396
40.1957,14.4543
40.1845,14.4579
40.1556,14.4656
40.1556,14.4656
40.0695,14.5012
40.0654,14.5029
39.9668,14.5396
39.9668,14.5396
39.9412,14.5536
39.9292,14.5594
39.9133,14.5660
39.8217,14.6189
39.8191,14.6203
39.7157,14.6768
39.7025,14.6867
39.6902,14.6948
39.6862,14.6971
39.6862,14.6971
39.5922,14.7692
39.5910,14.7701
39.4866,14.8483
39.4866,14.8483
39.2843,15.0506
39.2843,15.0506
39.2061,15.1550
39.2052,15.1562
39.1331,15.2502
39.1331,15.2502
39.1308,15.2542
39.1227,15.2665
39.1128,15.2797
39.0563,15.3831
39.0549,15.3857
39.0020,15.4773
38.9954,15.4932
38.9896,15.5052
38.9756,15.5308
38.9756,15.5308
38.9389,15.6294
38.9372,15.6335
38.9016,15.7196
38.9016,15.7196
38.8939,15.7485
38.8903,15.7597
38.8756,15.7989
38.8756,15.7990
38.8560,15.8894
38.8546,15.8951
38.8337,15.9729
38.8282,16.0151
38.8264,16.0253
38.8148,16.0786
38.8148,16.0786
38.8091,16.1582
38.8084,16.1656
38.7995,16.2329
38.7995,16.2881
38.7992,16.2970
38.7944,16.3640
37.5294,16.3640
37.6670,16.2264
37.7162,16.1527
37.7491,16.1035
37.8057,15.9669
37.8151,15.9195
37.8345,15.8219
37.8345,11.3265
37.8542,11.2595
37.9070,11.2137
37.9585,11.2025
38.1819,11.2025
38.1819,11.2025
38.2415,11.1961
38.3763,11.1458
38.4915,11.0595
38.5691,10.9560
38.6250,10.9141
38.6947,10.9091
38.7331,10.9245
38.9179,11.0378
39.0145,11.0778
39.1386,11.1292
39.1434,11.1312
39.1434,11.1312
39.1434,11.1312
39.1434,11.1312
39.3807,11.1881
39.6240,11.2073
39.8673,11.1881
40.1046,11.1312
40.3301,11.0378
40.5382,10.9103
40.7238,10.7518
40.7997,10.6628
40.8582,10.6246
40.9281,10.6241
40.9871,10.6615
40.9883,10.6628
40.9977,10.6739
41.0642,10.7518
41.1573,10.8312
41.2498,10.9103
41.2498,10.9103
41.4579,11.0378
41.5545,11.0778
41.6786,11.1292
41.6834,11.1312
41.6834,11.1312
41.6834,11.1312
41.6834,11.1312
41.9207,11.1881
42.1640,11.2073
42.4073,11.1881
42.6446,11.1312
42.8701,11.0378
43.0782,10.9103
43.2638,10.7518
43.4223,10.5662
43.5498,10.3581
43.6432,10.1326
43.7001,9.8953
43.7193,9.6520
43.7001,9.4087
43.6432,9.1714
43.6318,9.1440
43.5498,8.9459
43.4223,8.7378
43.4223,8.7378
43.3728,8.6799
43.2638,8.5522
43.1411,8.4474
43.0782,8.3937
43.0782,8.3937
42.8701,8.2662
42.6446,8.1728
42.6446,8.1728
42.4535,8.1270
42.4073,8.1159
42.4073,8.1159
42.4073,8.1159
42.1640,8.0967
41.9207,8.1159
41.9207,8.1159
41.7443,8.1582
41.6834,8.1728
41.4579,8.2662
41.2498,8.3937
41.2498,8.3937
41.0642,8.5522
40.9883,8.6412
40.9298,8.6794
40.8599,8.6799
40.8009,8.6425
40.7997,8.6412
40.7818,8.6203
40.7238,8.5522
40.6011,8.4474
40.5382,8.3937
40.5382,8.3937
40.3301,8.2662
40.1046,8.1728
40.1046,8.1728
39.9135,8.1270
39.8673,8.1159
39.8673,8.1159
39.8673,8.1159
39.6240,8.0967
39.3807,8.1159
39.3807,8.1159
39.2043,8.1582
39.1434,8.1728
38.9179,8.2662
38.7331,8.3794
38.6657,8.3977
38.5991,8.3766
38.5691,8.3480
38.4915,8.2445
38.4915,8.2445
38.3763,8.1582
38.3763,8.1582
38.2415,8.1079
38.2415,8.1079
38.1819,8.1015
38.1819,8.1015
38.1819,8.1015
38.1819,8.1015
35.9861,8.1015
35.9861,8.1015
35.9265,8.1079
35.7917,8.1582
35.7917,8.1582
35.7008,8.2262
35.6353,8.2506
35.5671,8.2358
35.5177,8.1864
35.5025,8.1270
35.5025,7.3245
35.5222,7.2575
35.5750,7.2117
35.6265,7.2005
44.3775,7.2005
Z" /> 
</g>
<g style="fill:#FFFFFF; fill-opacity:1.0000; stroke:none;">
<circle cx="11.3360" cy="34.1440" r="1.5000" /> 
</g>
<g style="fill:#FFFFFF; fill-opacity:1.0000; stroke:none;">
<circle cx="11.3360" cy="34.1440" r="1.5000" /> 
</g>
<g style="fill:#FFFFFF; fill-opacity:1.0000; stroke:none;">
<circle cx="40.8000" cy="16.3640" r="1.5000" /> 
</g>
<g style="fill:#FFFFFF; fill-opacity:1.0000; stroke:none;">
<circle cx="11.4300" cy="29.2100" r="0.5500" /> 
</g>
<g style="fill:#FFFFFF; fill-opacity:1.0000; stroke:none;">
<circle cx="11.4300" cy="26.6700" r="0.5500" /> 
</g>
<g style="fill:#FFFFFF; fill-opacity:1.0000; stroke:none;">
<circle cx="11.4300" cy="24.1300" r="0.5500" /> 
</g>
<g style="fill:#FFFFFF; fill-opacity:1.0000; stroke:none;">
<circle cx="28.1940" cy="34.2900" r="0.5500" /> 
</g>
<g style="fill:#FFFFFF; fill-opacity:1.0000; stroke:none;">
<circle cx="30.7340" cy="34.2900" r="0.5500" /> 
</g>
<g style="fill:#FFFFFF; fill-opacity:1.0000; stroke:none;">
<circle cx="33.2740" cy="34.2900" r="0.5500" /> 
</g>
<g style="fill:#FFFFFF; fill-opacity:1.0000; stroke:none;">
<circle cx="40.1320" cy="21.0820" r="0.5500" /> 
</g>
<g style="fill:#FFFFFF; fill-opacity:1.0000; stroke:none;">
<circle cx="40.1320" cy="23.6220" r="0.5500" /> 
</g>
<g style="fill:#FFFFFF; fill-opacity:1.0000; stroke:none;">
<circle cx="40.1320" cy="26.1620" r="0.5500" /> 
</g>
<g style="fill:#FFFFFF; fill-opacity:1.0000; stroke:none;">
<circle cx="18.0340" cy="34.2900" r="0.5500" /> 
</g>
<g style="fill:#FFFFFF; fill-opacity:1.0000; stroke:none;">
<circle cx="20.5740" cy="34.2900" r="0.5500" /> 
</g>
<g style="fill:#FFFFFF; fill-opacity:1.0000; stroke:none;">
<circle cx="23.1140" cy="34.2900" r="0.5500" /> 
</g>
<g style="fill:#FFFFFF; fill-opacity:1.0000; stroke:none;">
<circle cx="11.4300" cy="14.2240" r="0.5500" /> 
</g>
<g style="fill:#FFFFFF; fill-opacity:1.0000; stroke:none;">
<circle cx="11.4300" cy="16.7640" r="0.5500" /> 
</g>
<g style="fill:#FFFFFF; fill-opacity:1.0000; stroke:none;">
<circle cx="11.4300" cy="19.3040" r="0.5500" /> 
</g>
<g style="fill:#FFFFFF; fill-opacity:1.0000; stroke:none;">
<circle cx="37.0840" cy="9.6520" r="0.5500" /> 
</g>
<g style="fill:#FFFFFF; fill-opacity:1.0000; stroke:none;">
<circle cx="39.6240" cy="9.6520" r="0.5500" /> 
</g>
<g style="fill:#FFFFFF; fill-opacity:1.0000; stroke:none;">
<circle cx="42.1640" cy="9.6520" r="0.5500" /> 
</g> 
</svg>
